<?xml version="1.0" encoding="UTF-8" standalone="no"?>
<!-- Generator: Adobe Illustrator 22.0.1, SVG Export Plug-In . SVG Version: 6.00 Build 0)  -->

<svg
   xmlns:dc="http://purl.org/dc/elements/1.1/"
   xmlns:cc="http://creativecommons.org/ns#"
   xmlns:rdf="http://www.w3.org/1999/02/22-rdf-syntax-ns#"
   xmlns:svg="http://www.w3.org/2000/svg"
   xmlns="http://www.w3.org/2000/svg"
   xmlns:sodipodi="http://sodipodi.sourceforge.net/DTD/sodipodi-0.dtd"
   xmlns:inkscape="http://www.inkscape.org/namespaces/inkscape"
   version="1.1"
   id="Layer_1"
   x="0px"
   y="0px"
   viewBox="0 0 30 30"
   style="enable-background:new 0 0 30 30;"
   xml:space="preserve"
   sodipodi:docname="deg-WNW.svg"
   inkscape:export-filename="/home/rhys/workspace/kindle-weather/app/icons/small/deg-N.svg.png"
   inkscape:export-xdpi="12.29"
   inkscape:export-ydpi="12.29"
   inkscape:version="0.92.3 (2405546, 2018-03-11)"><metadata
   id="metadata9"><rdf:RDF><cc:Work
       rdf:about=""><dc:format>image/svg+xml</dc:format><dc:type
         rdf:resource="http://purl.org/dc/dcmitype/StillImage" /><dc:title></dc:title></cc:Work></rdf:RDF></metadata><defs
   id="defs7" /><sodipodi:namedview
   pagecolor="#ffffff"
   bordercolor="#666666"
   borderopacity="1"
   objecttolerance="10"
   gridtolerance="10"
   guidetolerance="10"
   inkscape:pageopacity="0"
   inkscape:pageshadow="2"
   inkscape:window-width="1920"
   inkscape:window-height="1029"
   id="namedview5"
   showgrid="false"
   inkscape:zoom="7.8666667"
   inkscape:cx="12.521186"
   inkscape:cy="15"
   inkscape:window-x="0"
   inkscape:window-y="25"
   inkscape:window-maximized="1"
   inkscape:current-layer="Layer_1" />
<path
   d="M 10.704217,24.891597 C 8.8195033,24.110922 7.2685396,22.916472 6.0567377,21.321313 4.8449369,19.726152 4.1034974,17.936159 3.8324225,15.951337 3.5613457,13.966515 3.8188522,12.038282 4.595699,10.162805 5.177377,8.7585087 6.0132597,7.524449 7.0902797,6.466038 8.1672972,5.4076298 9.371033,4.6181886 10.681423,4.0677509 11.991802,3.5172903 13.406616,3.237434 14.925831,3.2281025 c 1.519213,-0.0093 2.973644,0.2683951 4.396416,0.8577275 1.404299,0.5816786 2.638357,1.4175609 3.696767,2.4945789 1.058409,1.0770198 1.85709,2.2845801 2.398288,3.5911451 0.541196,1.306563 0.821078,2.721365 0.834236,4.23134 0.01316,1.509976 -0.264567,2.964407 -0.850073,4.377943 -0.585504,1.413533 -1.425213,2.656831 -2.502232,3.715241 -1.077021,1.058409 -2.284581,1.857093 -3.594971,2.407527 -1.310379,0.550461 -2.721366,0.821079 -4.225929,0.847303 -1.504566,0.02623 -2.960579,-0.273805 -4.374116,-0.859311 z m 0.949054,-2.291221 c 2.189597,0.906959 4.421894,0.900751 6.700727,-0.02786 2.260355,-0.936273 3.84322,-2.510359 4.765486,-4.736906 0.60464,-1.459731 0.806871,-2.967082 0.589802,-4.507399 C 23.492217,11.787892 22.926202,10.384456 21.981311,9.1379585 21.036395,7.8914732 19.840598,6.9632065 18.380875,6.3585638 16.921144,5.7539236 15.409967,5.5609299 13.860412,5.7741719 12.310853,5.987415 10.912834,6.5664937 9.6663438,7.5114124 8.4198293,8.4563392 7.5007992,9.6559571 6.8961586,11.115688 c -0.6046406,1.459729 -0.8068712,2.96708 -0.5898028,4.507396 0.2170696,1.540321 0.7923217,2.947579 1.7333854,4.203318 0.9411175,1.255714 2.1538038,2.169332 3.6135298,2.773974 z M 18.929289,20.321303 8.2522919,11.839775 c -0.088563,-0.04751 -0.115643,-0.112812 -0.081179,-0.195985 0.034441,-0.08315 0.099753,-0.110217 0.1959847,-0.08118 l 13.5432988,1.561673 c 0.116934,0.0051 0.187013,0.04499 0.223315,0.114147 0.03632,0.06915 0.0057,0.143063 -0.09184,0.221733 l -2.528958,2.708376 c -0.07524,0.07708 -0.113492,0.169467 -0.110979,0.267926 l -0.138353,3.731065 c 0.01716,0.115351 -0.0096,0.18002 -0.08036,0.194017 -0.07074,0.01398 -0.169198,0.01651 -0.253931,-0.04024 z"
   id="path2"
   inkscape:connector-curvature="0" />
</svg>